<?xml version="1.0" encoding="UTF-8" standalone="no"?>
<svg version="1.1" width="700" height="700" xmlns="http://www.w3.org/2000/svg">

<path fill="#fd0" d="m 135,350 a 215,215,0,0,0,430,0 h -430 z"/>
<path fill="#08d" d="m 135,350 a 215,215,0,0,1,430,0 h -430 z"/>

<g style="fill:none;stroke:#fd0;stroke-linecap:round">
  <path stroke-width="6px" d="m 107,350 a 243,243,0,0,0,243,243"/>
  <path stroke-width="8px" d="M 83,350 A 267,267,0,0,0,419,607.93"/>
  <path stroke-width="10px" d="M 59,350 A 291,291,0,0,0,495,602.3"/>
  <path stroke-width="12px" d="M 35,350 A 315,315,0,0,0,571,574.464"/>
  <path stroke-width="14px" d="M 12,350 A 338,338,0,0,0,626,545.11"/>
</g>

<g style="fill:none;stroke:#08d;stroke-linecap:butt">
  <path stroke-width="6px" d="m 107,350 a 243,243,0,0,1,243,-243"/>
  <path stroke-width="8px" d="m 83,350 a 267,267,0,0,1,267,-267"/>
  <path stroke-width="10px" d="m 59,350 a 291,291,0,0,1,291,-291"/>
  <path stroke-width="12px" d="m 35,350 a 315,315,0,0,1,315,-315"/>
  <path stroke-width="14px" d="m 12,350 a 338,338,0,0,1,338,-338"/>
</g>

<g style="fill:none;stroke:#08d;stroke-linecap:round">
  <path stroke-width="6px" d="m 350,107 a 243,243,0,0,1,243,243"/>
  <path stroke-width="8px" d="M 350,83 A 267,267,0,0,1,607.661,280"/>
  <path stroke-width="10px" d="M 350,59 A 291,291,0,0,1,601.724,204"/>
  <path stroke-width="12px" d="M 350,35 A 315,315,0,0,1,572.477,127"/>
  <path stroke-width="14px" d="M 350,12 A 338,338,0,0,1,543.688,73"/>
</g>

<path fill="white" transform="scale(0.85) translate(290.7647,210)" d="
	m 121 1 c -9.3 10.6 -15 24.4 -15 39.6 0.6 33.4 4.6 66.7 5 100 0.7 31.1 -8.6 60.3 -19.9 88.8 -3.8 7.9 
		-7.9 15.6 -12 23.3 l -12 -2.4 c -10.8 -2.2 -17.9 -12.7 -15.7 -23.5 1.9 -9.5 10.2 -16.1 19.5 -16.1 l 4.4 0.5 
		l -9.8 -81.6 c -3.2 -36.3 -21.9 -68.2 -49.5 -88.9 -4.7 -3.6 -9.8 -6.8 -15 -9.7 v 289.7 h 66.9 c 5 27.1 
		19.9 50.8 40.9 67 5 3.4 9.2 8 12.2 13.3 3 -5.3 7.2 -9.8 12.2 -13.3 21 -16.2 35.9 -39.9 40.9 -67 h 66.9 
		v -289.7 c -5.2 2.9 -10.3 6.1 -15 9.7 -27.6 20.7 -46.3 52.6 -49.5 88.9 l -9.8 81.6 l 4.4 -0.5 c 9.3 0 
		17.6 6.6 19.5 16.1 2.2 10.8 -4.9 21.4 -15.7 23.5 l -12 2.4 c -4.1 -7.7 -8.2 -15.4 -12 -23.3 -11.4 -28.5 
		-20.7 -57.7 -19.9 -88.8 0.4 -33.4 4.4 -66.7 5 -100 0 -15.2 -5.7 -29 -15 -39.6 z 
	m -100 71.7 c 12.9 15.2 21.6 34.1 24.2 54.9 l 8 67.3 c -10.2 5.1 -18 14.5 -20.9 25.8 h -11.3 v -148 z 
	m 200 0 v 148 h -11.3 c -2.9 -11.3 -10.7 -20.7 -20.9 -25.8 l 8 -67.3 c 2.6 -20.8 11.3 -39.7 24.2 -54.9 z 
	m -100 135.3 c 5.4 17.6 12.8 34.3 22 49.8 -8.7 2.6 -16.3 7.8 -22 14.8 -5.6 
		-7 -13.2 -12.1 -22 -14.8 9.2 -15.5 16.6 -32.2 22 -49.8 z 
	m -100 32.7 h 11.3 c 3.6 13.8 14.4 24.7 28 28.5 l 9.6 2.2 c -2.6 9.3 -4 19.1 -4 29.3 h -45 v -60 z 
	m 188.7 0 h 11.3 v 60 h -45 c 0 -10.1 -1.4 -20 -4 -29.3 l 9.6 -2.2 c 13.7 -3.8 24.5 -14.7 28 -28.5 z 
	m -120.2 35.3 c 12.1 1.7 21.5 12.1 21.5 24.7 h -25 c 0 -8.6 1.3 -16.8 3.5 -24.7 z 
	m 63 0 c 2.2 7.8 3.5 16.1 3.5 24.7 h -25 c 0 -12.6 9.4 -23 21.5 -24.7 z 
	m -64.2 44.7 h 22.7 v 42.1 c -11 -11.6 -19 -26 -22.7 -42.1 z 
	m 42.7 0 h 22.7 c -3.7 16.1 -11.7 30.6 -22.7 42.1 v -42.1 z"/>

</svg>